HIERARCHY
ROOT Hips
{
    OFFSET 0.000000 0.000000 0.000000
    CHANNELS 6 Xposition Yposition Zposition Zrotation Yrotation Xrotation
    JOINT Chest
    {
        OFFSET 0.000000 1.634758 -0.000000
        CHANNELS 3 Zrotation Yrotation Xrotation
        JOINT Chest2
        {
            OFFSET 0.000000 2.197341 0.000000
            CHANNELS 3 Zrotation Yrotation Xrotation
            JOINT Neck
            {
                OFFSET 0.000000 0.961544 0.000000
                CHANNELS 3 Zrotation Yrotation Xrotation
                JOINT Head
                {
                    OFFSET 0.000000 0.632542 -0.032565
                    CHANNELS 3 Zrotation Yrotation Xrotation
                    End Site
                    {
                        OFFSET -0.000001 0.439502 2.922845
                    }
                }
            }
            JOINT LeftCollar
            {
                OFFSET 0.167536 0.778237 -0.168280
                CHANNELS 3 Zrotation Yrotation Xrotation
                JOINT LeftShoulder
                {
                    OFFSET 0.831514 -0.002900 0.006458
                    CHANNELS 3 Zrotation Yrotation Xrotation
                    JOINT LeftElbow
                    {
                        OFFSET 2.272872 -0.026639 0.059314
                        CHANNELS 3 Zrotation Yrotation Xrotation
                        JOINT LeftWrist
                        {
                            OFFSET 2.081982 -0.024402 0.054333
                            CHANNELS 3 Zrotation Yrotation Xrotation
                            JOINT LeftHandThumb1
                            {
                                OFFSET 0.218903 -0.128645 0.283837
                                CHANNELS 3 Zrotation Yrotation Xrotation
                                JOINT LeftHandThumb2
                                {
                                    OFFSET 0.137157 -0.025101 0.077902
                                    CHANNELS 3 Zrotation Yrotation Xrotation
                                    JOINT LeftHandThumb3
                                    {
                                        OFFSET 0.168595 -0.067221 0.024422
                                        CHANNELS 3 Zrotation Yrotation Xrotation
                                        End Site
                                        {
                                            OFFSET 0.252337 -0.084569 0.031795
                                        }
                                    }
                                }
                            }
                            JOINT LeftHandFore1
                            {
                                OFFSET 0.767340 -0.016076 0.196678
                                CHANNELS 3 Zrotation Yrotation Xrotation
                                JOINT LeftHandFore2
                                {
                                    OFFSET 0.179787 -0.120935 0.006845
                                    CHANNELS 3 Zrotation Yrotation Xrotation
                                    JOINT LeftHandFore3
                                    {
                                        OFFSET 0.061887 -0.113547 -0.006313
                                        CHANNELS 3 Zrotation Yrotation Xrotation
                                        End Site
                                        {
                                            OFFSET 0.017209 -0.192397 -0.007339
                                        }
                                    }
                                }
                            }
                            JOINT LeftHandMiddle1
                            {
                                OFFSET 0.709887 -0.008320 0.018526
                                CHANNELS 3 Zrotation Yrotation Xrotation
                                JOINT LeftHandMiddle2
                                {
                                    OFFSET 0.209082 -0.127858 0.000980
                                    CHANNELS 3 Zrotation Yrotation Xrotation
                                    JOINT LeftHandMiddle3
                                    {
                                        OFFSET 0.082275 -0.120571 -0.008749
                                        CHANNELS 3 Zrotation Yrotation Xrotation
                                        End Site
                                        {
                                            OFFSET 0.033303 -0.233203 -0.011720
                                        }
                                    }
                                }
                            }
                            JOINT LeftHandRing1
                            {
                                OFFSET 0.743817 -0.005823 -0.153668
                                CHANNELS 3 Zrotation Yrotation Xrotation
                                JOINT LeftHandRing2
                                {
                                    OFFSET 0.297972 -0.188845 -0.016849
                                    CHANNELS 3 Zrotation Yrotation Xrotation
                                    JOINT LeftHandRing3
                                    {
                                        OFFSET 0.071002 -0.115550 -0.014574
                                        CHANNELS 3 Zrotation Yrotation Xrotation
                                        End Site
                                        {
                                            OFFSET 0.007705 -0.119045 -0.013731
                                        }
                                    }
                                }
                            }
                            JOINT LeftHandLittle1
                            {
                                OFFSET 0.689408 -0.053302 -0.308304
                                CHANNELS 3 Zrotation Yrotation Xrotation
                                JOINT LeftHandLittle2
                                {
                                    OFFSET 0.167334 -0.098405 -0.019240
                                    CHANNELS 3 Zrotation Yrotation Xrotation
                                    JOINT LeftHandLittle3
                                    {
                                        OFFSET 0.057888 -0.103633 -0.020134
                                        CHANNELS 3 Zrotation Yrotation Xrotation
                                        End Site
                                        {
                                            OFFSET 0.032557 -0.183078 -0.041367
                                        }
                                    }
                                }
                            }
                        }
                    }
                }
            }
            JOINT RightCollar
            {
                OFFSET -0.167536 0.778237 -0.168280
                CHANNELS 3 Zrotation Yrotation Xrotation
                JOINT RightShoulder
                {
                    OFFSET -0.831514 -0.002900 0.006457
                    CHANNELS 3 Zrotation Yrotation Xrotation
                    JOINT RightElbow
                    {
                        OFFSET -2.272872 -0.026639 0.059313
                        CHANNELS 3 Zrotation Yrotation Xrotation
                        JOINT RightWrist
                        {
                            OFFSET -2.081982 -0.024402 0.054331
                            CHANNELS 3 Zrotation Yrotation Xrotation
                            JOINT RightHandThumb1
                            {
                                OFFSET -0.218911 -0.128571 0.283837
                                CHANNELS 3 Zrotation Yrotation Xrotation
                                JOINT RightHandThumb2
                                {
                                    OFFSET -0.137157 -0.025101 0.077902
                                    CHANNELS 3 Zrotation Yrotation Xrotation
                                    JOINT RightHandThumb3
                                    {
                                        OFFSET -0.161447 -0.079946 0.032909
                                        CHANNELS 3 Zrotation Yrotation Xrotation
                                        End Site
                                        {
                                            OFFSET -0.229400 -0.125438 0.058970
                                        }
                                    }
                                }
                            }
                            JOINT RightHandFore1
                            {
                                OFFSET -0.767344 -0.015991 0.196679
                                CHANNELS 3 Zrotation Yrotation Xrotation
                                JOINT RightHandFore2
                                {
                                    OFFSET -0.179817 -0.120896 0.006842
                                    CHANNELS 3 Zrotation Yrotation Xrotation
                                    JOINT RightHandFore3
                                    {
                                        OFFSET -0.061466 -0.113009 0.014589
                                        CHANNELS 3 Zrotation Yrotation Xrotation
                                        End Site
                                        {
                                            OFFSET -0.016693 -0.191773 0.017638
                                        }
                                    }
                                }
                            }
                            JOINT RightHandMiddle1
                            {
                                OFFSET -0.709887 -0.008302 0.018525
                                CHANNELS 3 Zrotation Yrotation Xrotation
                                JOINT RightHandMiddle2
                                {
                                    OFFSET -0.209066 -0.127876 0.000983
                                    CHANNELS 3 Zrotation Yrotation Xrotation
                                    JOINT RightHandMiddle3
                                    {
                                        OFFSET -0.082620 -0.119828 0.014125
                                        CHANNELS 3 Zrotation Yrotation Xrotation
                                        End Site
                                        {
                                            OFFSET -0.033889 -0.231958 0.026022
                                        }
                                    }
                                }
                            }
                            JOINT RightHandRing1
                            {
                                OFFSET -0.743819 -0.005785 -0.153669
                                CHANNELS 3 Zrotation Yrotation Xrotation
                                JOINT RightHandRing2
                                {
                                    OFFSET -0.297985 -0.188824 -0.016848
                                    CHANNELS 3 Zrotation Yrotation Xrotation
                                    JOINT RightHandRing3
                                    {
                                        OFFSET -0.071368 -0.116240 -0.000080
                                        CHANNELS 3 Zrotation Yrotation Xrotation
                                        End Site
                                        {
                                            OFFSET -0.008111 -0.119791 0.002161
                                        }
                                    }
                                }
                            }
                            JOINT RightHandLittle1
                            {
                                OFFSET -0.689403 -0.053298 -0.308303
                                CHANNELS 3 Zrotation Yrotation Xrotation
                                JOINT RightHandLittle2
                                {
                                    OFFSET -0.167339 -0.098401 -0.019241
                                    CHANNELS 3 Zrotation Yrotation Xrotation
                                    JOINT RightHandLittle3
                                    {
                                        OFFSET -0.058684 -0.104918 -0.006631
                                        CHANNELS 3 Zrotation Yrotation Xrotation
                                        End Site
                                        {
                                            OFFSET -0.035078 -0.187227 0.002041
                                        }
                                    }
                                }
                            }
                        }
                    }
                }
            }
        }
    }
    JOINT LeftHip
    {
        OFFSET 0.685143 0.673822 -0.044491
        CHANNELS 3 Zrotation Yrotation Xrotation
        JOINT LeftKnee
        {
            OFFSET 0.085364 -3.750208 0.017676
            CHANNELS 3 Zrotation Yrotation Xrotation
            JOINT LeftAnkle
            {
                OFFSET 0.094583 -4.155206 0.019585
                CHANNELS 3 Zrotation Yrotation Xrotation
                JOINT LeftToe
                {
                    OFFSET -0.000000 -0.395925 0.621478
                    CHANNELS 3 Zrotation Yrotation Xrotation
                    End Site
                    {
                        OFFSET -0.000000 -0.077878 0.321152
                    }
                }
            }
        }
    }
    JOINT RightHip
    {
        OFFSET -0.685143 0.673822 -0.044492
        CHANNELS 3 Zrotation Yrotation Xrotation
        JOINT RightKnee
        {
            OFFSET -0.085364 -3.750208 0.017677
            CHANNELS 3 Zrotation Yrotation Xrotation
            JOINT RightAnkle
            {
                OFFSET -0.094583 -4.155206 0.019585
                CHANNELS 3 Zrotation Yrotation Xrotation
                JOINT RightToe
                {
                    OFFSET -0.000000 -0.395925 0.621478
                    CHANNELS 3 Zrotation Yrotation Xrotation
                    End Site
                    {
                        OFFSET -0.000000 -0.077878 0.321152
                    }
                }
            }
        }
    }
}
MOTION
Frames: 6
Frame Time: 0.033333
0.245918 6.725540 0.614643 177.812088 11.988843 168.107468 -0.273058 12.433224 15.862473 -0.151522 -1.926619 -0.538810 -3.834196 8.447979 -1.708619 -0.658919 12.591786 -0.862227 2.397782 -2.171499 0.066424 10.826591 19.658907 -12.011233 178.327713 -48.079231 -179.261368 11.048762 1.124472 -5.897376 0.000002 -0.000012 0.000000 6.960856 -25.969255 -20.178913 6.988603 -11.051895 -7.781098 34.447083 -16.663330 -18.772964 25.773302 -5.203784 -2.427746 25.038269 3.994432 1.622137 27.547531 -10.630905 -7.597986 24.410437 -4.044197 -1.662591 24.670582 -5.525942 1.153158 23.485443 4.568457 2.116831 24.247293 -5.400592 -3.155896 23.909855 -6.365861 -0.081885 25.139301 15.840841 12.134701 23.622288 -0.239527 -4.038682 26.740299 -8.616113 -4.118639 9.814274 12.290017 0.296901 45.304466 36.592445 9.847740 -0.000001 -0.000000 -0.000001 -30.988483 -30.245653 8.603818 -0.000003 -0.000013 0.000012 -28.579908 14.764955 -10.325077 -9.248864 10.308445 -6.303570 -34.446712 16.660221 -18.776348 -25.482635 -6.677776 1.642135 -25.159952 2.553946 -2.388161 -27.547596 10.631532 -7.596557 -24.117167 -5.441618 2.709947 -24.395069 -6.934664 -0.089395 -23.485485 -4.568352 2.117067 -24.502131 -2.926212 3.957211 -24.435261 -3.905876 0.901829 -25.139297 -15.840882 12.134677 -22.560907 4.568412 5.840243 -27.436478 -2.919605 5.995813 23.822145 -1.060835 -5.915865 0.547959 1.062449 54.561646 -5.646102 26.751038 -19.830929 0.376987 1.982761 -2.863328 -28.239927 1.104588 -35.294991 -1.001011 -1.268322 76.565300 26.498714 -6.969837 3.513618 -0.010163 -1.456807 -13.231299
0.230989 6.723639 0.632143 177.854950 11.074059 168.477386 -0.657513 10.903939 15.167904 -0.468897 -1.653869 -0.239128 -4.062183 9.031192 -1.974247 -0.751915 14.300191 -1.402664 2.405327 -2.247152 0.055863 10.850298 21.141434 -12.304544 178.347717 -47.018124 -179.288544 10.893621 1.547566 -8.726222 -0.000011 -0.000017 -0.000006 6.960857 -25.969261 -20.178911 6.988605 -11.051895 -7.781097 34.447079 -16.663338 -18.772966 25.773302 -5.203784 -2.427742 25.038273 3.994434 1.622136 27.547537 -10.630913 -7.597985 24.410435 -4.044197 -1.662596 24.670584 -5.525942 1.153156 23.485447 4.568456 2.116834 24.247297 -5.400589 -3.155895 23.909853 -6.365858 -0.081880 25.139294 15.840839 12.134705 23.622292 -0.239527 -4.038683 26.740297 -8.616116 -4.118642 9.990494 12.121264 0.254395 46.792549 37.017200 10.605238 0.000000 -0.000000 0.000002 -32.054943 -31.815687 12.476530 -0.000004 -0.000011 0.000015 -28.579908 14.764955 -10.325073 -9.248854 10.308451 -6.303576 -34.446712 16.660217 -18.776342 -25.482628 -6.677785 1.642133 -25.159958 2.553951 -2.388158 -27.547604 10.631536 -7.596556 -24.117170 -5.441622 2.709944 -24.395069 -6.934666 -0.089394 -23.485491 -4.568349 2.117065 -24.502129 -2.926211 3.957212 -24.435259 -3.905877 0.901829 -25.139301 -15.840878 12.134675 -22.560913 4.568410 5.840244 -27.436483 -2.919607 5.995811 23.851431 -1.108498 -6.929610 0.551571 1.065008 54.756229 -5.794971 26.768246 -19.898140 0.354381 1.832669 -2.684687 -28.438005 1.061722 -35.035347 -0.997553 -1.267490 76.409119 26.232059 -5.638261 3.314462 -0.006679 -1.487704 -13.373714
0.209919 6.722297 0.646957 177.922134 9.764063 168.761703 -1.059643 9.126848 14.680129 -0.768865 -1.342691 -0.267875 -4.280934 9.515712 -2.147400 -0.837557 15.850911 -1.753958 2.391496 -2.381155 0.042998 10.775038 22.343620 -12.599137 178.369202 -45.806004 -179.318329 10.740126 1.932016 -11.476674 -0.000007 -0.000007 0.000003 6.960855 -25.969259 -20.178913 6.988600 -11.051892 -7.781101 34.447071 -16.663326 -18.772966 25.773298 -5.203782 -2.427748 25.038269 3.994432 1.622138 27.547527 -10.630897 -7.597991 24.410431 -4.044204 -1.662594 24.670580 -5.525941 1.153156 23.485451 4.568461 2.116826 24.247293 -5.400589 -3.155891 23.909855 -6.365855 -0.081883 25.139294 15.840841 12.134694 23.622297 -0.239526 -4.038684 26.740301 -8.616117 -4.118638 10.240500 11.795218 0.205117 48.462383 36.981091 11.262253 0.000002 -0.000002 0.000000 -33.123447 -33.275509 16.363066 -0.000000 -0.000006 0.000006 -28.579912 14.764955 -10.325078 -9.248853 10.308454 -6.303576 -34.446709 16.660217 -18.776337 -25.482628 -6.677781 1.642129 -25.159948 2.553948 -2.388163 -27.547596 10.631531 -7.596555 -24.117170 -5.441620 2.709947 -24.395060 -6.934668 -0.089395 -23.485483 -4.568351 2.117066 -24.502127 -2.926212 3.957212 -24.435255 -3.905876 0.901829 -25.139294 -15.840886 12.134682 -22.560907 4.568409 5.840242 -27.436474 -2.919601 5.995813 23.925745 -1.160666 -8.110352 0.557032 1.068849 55.049603 -5.980957 26.652149 -20.047195 0.316340 1.590458 -2.380102 -28.697300 1.011035 -34.405609 -0.992598 -1.266282 76.184906 26.194132 -4.396884 2.977745 -0.002637 -1.501471 -13.530422
0.183879 6.721389 0.659558 178.010147 8.234443 168.968613 -1.361391 7.740409 14.380434 -0.943490 -1.109204 -0.547124 -4.465888 9.782011 -2.238847 -0.893529 16.851751 -1.955242 2.351802 -2.532744 0.032547 10.578895 22.578749 -12.844933 178.387955 -44.680290 -179.344849 10.592013 2.267598 -14.018964 -0.000003 -0.000007 -0.000005 6.960853 -25.969265 -20.178913 6.988605 -11.051894 -7.781097 34.447086 -16.663334 -18.772955 25.773300 -5.203784 -2.427750 25.038269 3.994431 1.622135 27.547537 -10.630911 -7.597976 24.410429 -4.044202 -1.662598 24.670586 -5.525939 1.153158 23.485439 4.568449 2.116837 24.247297 -5.400588 -3.155896 23.909853 -6.365857 -0.081885 25.139286 15.840835 12.134707 23.622293 -0.239527 -4.038683 26.740299 -8.616114 -4.118642 10.509536 11.378741 0.167627 49.851833 36.340237 11.543268 -0.000002 0.000002 -0.000001 -34.143181 -34.571075 20.102467 0.000018 -0.000003 0.000013 -28.579905 14.764952 -10.325072 -9.248858 10.308455 -6.303575 -34.446701 16.660219 -18.776350 -25.482634 -6.677784 1.642135 -25.159956 2.553949 -2.388163 -27.547590 10.631537 -7.596562 -24.117163 -5.441622 2.709948 -24.395069 -6.934669 -0.089396 -23.485476 -4.568350 2.117059 -24.502125 -2.926211 3.957213 -24.435261 -3.905876 0.901828 -25.139282 -15.840878 12.134664 -22.560907 4.568411 5.840246 -27.436480 -2.919605 5.995812 24.008253 -1.214574 -9.362429 0.563849 1.073578 55.414150 -6.181557 26.423820 -20.245819 0.272501 1.328845 -2.041003 -28.983458 0.954712 -33.516613 -0.986169 -1.264683 75.893707 26.319860 -3.244378 2.562793 0.001428 -1.495141 -13.685610
0.153942 6.720815 0.670329 178.115524 6.660816 169.106247 -1.583708 6.710051 14.222352 -1.018792 -0.945873 -1.005945 -4.624351 9.918538 -2.270132 -0.930024 17.498728 -2.050691 2.291581 -2.690835 0.024538 10.263973 22.015223 -13.031241 178.403900 -43.668457 -179.367798 10.453072 2.544634 -16.223169 0.000000 -0.000009 -0.000000 6.960856 -25.969259 -20.178917 6.988605 -11.051892 -7.781097 34.447075 -16.663330 -18.772961 25.773298 -5.203783 -2.427747 25.038271 3.994433 1.622133 27.547531 -10.630905 -7.597982 24.410431 -4.044201 -1.662598 24.670582 -5.525937 1.153158 23.485441 4.568459 2.116831 24.247299 -5.400593 -3.155895 23.909851 -6.365859 -0.081880 25.139292 15.840837 12.134699 23.622286 -0.239527 -4.038686 26.740301 -8.616114 -4.118639 10.775597 10.933648 0.140832 50.955208 35.341969 11.541558 0.000002 -0.000000 0.000001 -35.054859 -35.652943 23.524250 -0.000004 0.000002 0.000010 -28.579905 14.764956 -10.325078 -9.248857 10.308451 -6.303572 -34.446709 16.660225 -18.776348 -25.482626 -6.677783 1.642136 -25.159956 2.553950 -2.388167 -27.547598 10.631537 -7.596554 -24.117168 -5.441621 2.709948 -24.395063 -6.934670 -0.089396 -23.485479 -4.568350 2.117071 -24.502131 -2.926210 3.957211 -24.435259 -3.905879 0.901829 -25.139292 -15.840882 12.134684 -22.560907 4.568410 5.840240 -27.436478 -2.919604 5.995813 24.069714 -1.267502 -10.590343 0.571586 1.078869 55.825985 -6.373887 26.100636 -20.465710 0.233964 1.112938 -1.758048 -29.270670 0.895087 -32.482704 -0.978311 -1.262683 75.537598 26.552046 -2.178171 2.132209 0.004959 -1.466978 -13.824726
0.121155 6.720490 0.679551 178.234833 5.218781 169.182770 -1.817156 5.593558 14.154852 -1.090563 -0.772996 -1.585482 -4.787615 10.127140 -2.293772 -0.976911 18.323170 -2.137993 2.221506 -2.866198 0.016238 9.847314 21.354849 -13.186646 178.418777 -42.673275 -179.389648 10.327084 2.753960 -17.959150 -0.000003 -0.000014 -0.000003 6.960854 -25.969259 -20.178909 6.988605 -11.051895 -7.781100 34.447090 -16.663332 -18.772953 25.773298 -5.203785 -2.427748 25.038271 3.994432 1.622141 27.547537 -10.630913 -7.597977 24.410435 -4.044199 -1.662594 24.670586 -5.525938 1.153161 23.485445 4.568450 2.116834 24.247297 -5.400590 -3.155893 23.909851 -6.365858 -0.081883 25.139292 15.840835 12.134699 23.622290 -0.239527 -4.038682 26.740299 -8.616114 -4.118639 11.037837 10.510729 0.109799 52.045284 34.431870 11.573046 -0.000008 0.000003 -0.000001 -35.792973 -36.475292 26.451010 0.000004 -0.000003 0.000014 -28.579903 14.764956 -10.325074 -9.248857 10.308447 -6.303572 -34.446709 16.660219 -18.776348 -25.482628 -6.677780 1.642132 -25.159954 2.553952 -2.388160 -27.547596 10.631537 -7.596560 -24.117168 -5.441620 2.709947 -24.395071 -6.934667 -0.089398 -23.485485 -4.568349 2.117065 -24.502125 -2.926214 3.957211 -24.435259 -3.905877 0.901830 -25.139301 -15.840882 12.134676 -22.560907 4.568409 5.840241 -27.436480 -2.919600 5.995812 24.090633 -1.316809 -11.699392 0.579881 1.084455 56.265446 -6.535767 25.696089 -20.684662 0.212252 0.997665 -1.619684 -29.543175 0.834650 -31.422873 -0.969157 -1.260288 75.121605 26.841455 -1.195428 1.752774 0.007516 -1.416973 -13.934920
